<svg id="Layer_2" data-name="Layer 2" xmlns="http://www.w3.org/2000/svg" viewBox="0 0 95 95"><defs><style>.cls-1{fill:#fff;}.cls-2{fill:#231f20;}.cls-3,.cls-7{fill:#0075bf;}.cls-4{fill:#f7b16e;}.cls-5{fill:#f15d2f;}.cls-6{fill:#f0514e;}.cls-7{fill-rule:evenodd;}.cls-8{fill:#005aaa;}</style></defs><title>Artboard 1</title><path class="cls-1" d="M2.36,47.5A45.14,45.14,0,1,1,47.5,92.64,45.14,45.14,0,0,1,2.36,47.5"/><path class="cls-2" d="M47.5,93.32A45.82,45.82,0,1,1,93.32,47.5,45.87,45.87,0,0,1,47.5,93.32ZM47.5,3A44.46,44.46,0,1,0,92,47.5,44.5,44.5,0,0,0,47.5,3Z"/><path class="cls-3" d="M12.44,47.48A34.87,34.87,0,1,1,47.3,82.34,34.87,34.87,0,0,1,12.44,47.48"/><path class="cls-2" d="M47.3,83A35.55,35.55,0,1,1,82.85,47.47,35.58,35.58,0,0,1,47.3,83Zm0-69.73A34.19,34.19,0,1,0,81.49,47.47,34.22,34.22,0,0,0,47.3,13.29Z"/><path class="cls-4" d="M32.48,47.85H62.29l-1.55,1.89L60.48,72l-1.43,2.81-6.87,1.39-3,.69-1.5,1.55-.26.53-1-1.54-2-.91L41.27,76,38,75.54,35.3,74.47l-1.11-1.6-.49-3.62.17-13.89-.11-5.43s-2.07-2.08-1.28-2.08"/><path class="cls-4" d="M47.4,79.23l-1.1-1.68-2-.9-3-.52L38,75.65l-2.77-1.08-1.16-1.68-.48-3.62.16-13.91L33.64,50c-.42-.43-1.6-1.68-1.43-2.09,0-.07.1-.15.27-.15H62.53l-1.68,2-.27,22.29-1.46,2.86-6.92,1.4-3,.69-1.45,1.5Zm-12-4.85,2.69,1.05,3.22.48,3.09.53,2.08.93.92,1.4.2-.38,1.52-1.57h0l3-.69L59,74.74,60.37,72l.25-22.3,0,0L62.05,48H32.48s-.06,0-.06,0,.57,1,1.42,1.87l0,0L34,55.36l-.16,13.9.47,3.57Z"/><rect class="cls-5" x="33.89" y="57.03" width="26.58" height="9.38"/><path class="cls-6" d="M60.59,66.53H33.78V56.92H60.59ZM34,66.3H60.36V57.15H34Z"/><path class="cls-2" d="M50.33,64.43H42.38l5.39-3.68h0l2.34-1.6.39.56-2.35,1.6,1.68,2.45h.5Zm-3.63-.67H49L47.8,62Zm-2.13,0H45.9l1-1.58Zm8.7-8.27H42.38v-.34c0-1.3,0-1.3.09-1.4s.2-.11.48-.11c1.26,0,1.59-.08,1.67-.15a.74.74,0,0,0,0-.94c-.29-.31-1.24-.34-1.87-.37h-.3a3,3,0,0,1-3-2l-.09-.41H54.52v1.7h-.34c-1.62,0-2.36.37-2.37,1.2,0,1.09.48,1.17,1.17,1.28l.29.05v1.5Zm-10.22-.68h9.54v-.25c-.68-.13-1.48-.45-1.46-1.91,0-1.63,1.78-1.84,2.71-1.86v-.35H40.29a2.84,2.84,0,0,0,2.17,1.06h.29a3.54,3.54,0,0,1,2.35.58,1.43,1.43,0,0,1,0,1.85c-.28.33-1,.4-2.08.38Z"/><path class="cls-2" d="M60.79,66.94H34.18V66H60.79Zm-.1-9.49H34.08v-.9H60.69Z"/><path class="cls-2" d="M47.31,80.1l-.49-1c-1.06-2.2-2.72-2.32-5.45-2.51-.86-.06-1.83-.13-2.88-.27-4.84-.68-5.2-2.72-5.2-5.77V50.16c0-.32-.42-.95-1.59-1.74l-1.53-1H32l30.47,0h2l-1.73,1.06c-1.54.93-1.54,1.48-1.53,1.75V70.53c0,3.91-2.12,5.19-3.9,5.58a24.87,24.87,0,0,1-3.08.41c-2.76.24-5.36.47-6.45,2.58ZM33.6,48.51a2.51,2.51,0,0,1,.82,1.65V70.53c0,2.53,0,4.06,4.23,4.64,1,.15,2,.21,2.8.27,2.5.18,4.54.32,5.91,2.32,1.56-1.9,4.34-2.15,6.82-2.37A22.6,22.6,0,0,0,57.12,75c2-.44,3-2,3-4.48V50.17a2.29,2.29,0,0,1,.71-1.68Z"/><path class="cls-2" d="M38.23,61.19a.69.69,0,1,1,.69.69.69.69,0,0,1-.69-.69"/><path class="cls-2" d="M38.92,62a.81.81,0,1,1,.81-.81A.81.81,0,0,1,38.92,62Zm0-1.39a.58.58,0,1,0,.58.58A.58.58,0,0,0,38.92,60.61Z"/><path class="cls-2" d="M38.92,64.2a3,3,0,1,1,3-3A3,3,0,0,1,38.92,64.2Zm-1.53-1.26a2.38,2.38,0,0,0,1.06.54c.82-.38.39-1.62.39-1.63l.64-.23a2.44,2.44,0,0,1-.06,1.85,2.29,2.29,0,0,0,1.42-1c-.11-.83-1.28-.89-1.33-.89l0-.68h.05l-.48-.46a2.38,2.38,0,0,1,1.57-.74A2.3,2.3,0,0,0,39,58.91c-.63.53-.1,1.43-.07,1.47l-.58.35A2.09,2.09,0,0,1,38.14,59a2.42,2.42,0,0,0-1,.71c0,.89,1.25,1,1.3,1.06l-.07.67a2.41,2.41,0,0,1-1.67-.88,2.51,2.51,0,0,0-.08.62,2.32,2.32,0,0,0,.21,1c.78.41,1.4-.59,1.42-.63l.59.34A2.2,2.2,0,0,1,37.39,62.94Zm2.21-2a2.34,2.34,0,0,1,1.59.72,3,3,0,0,0,0-.42,2.35,2.35,0,0,0-.11-.71C40.43,60.14,39.69,60.84,39.6,60.92Z"/><path class="cls-2" d="M36,64.18a.54.54,0,1,1,.54.54.54.54,0,0,1-.54-.54"/><path class="cls-2" d="M40.7,64.19a.54.54,0,0,1,1.07,0,.54.54,0,1,1-1.07,0"/><path class="cls-2" d="M55.35,61.67a.54.54,0,1,1,.54.53.54.54,0,0,1-.54-.53"/><path class="cls-2" d="M51.68,60.09a.54.54,0,1,1,.54.54.54.54,0,0,1-.54-.54"/><path class="cls-2" d="M51.32,62.73a.54.54,0,1,1,.53.54.53.53,0,0,1-.53-.54"/><path class="cls-2" d="M47.89,74.9a.75.75,0,0,1-.45-.26,4.32,4.32,0,0,0-1.29-.88,7.42,7.42,0,0,0-1.68-.51c-.65-.15-1.27-.28-1.21-1h0a.9.9,0,0,1,.08-.28l-.4-.64c-.67-1.08-1.77-2.89-2.72-3A3.86,3.86,0,0,0,37.9,69l-.41-.54a4.52,4.52,0,0,1,2.83-.8c.84.12,1.64,1,2.31,2a9.75,9.75,0,0,1,2.63-1,14.41,14.41,0,0,1,5.05.22l.26,0,6,.9-.1.68-1.27-.2v.89h-.68v-1l-4-.61-.27,0-.33-.06v.94h-.68v-1L48,69.15v0a2.15,2.15,0,0,0-1.94,1.72.77.77,0,0,1,.7.37,7.14,7.14,0,0,0,2.46,2.52l.71.4-1.1.3a1.75,1.75,0,0,0-.75.35A.3.3,0,0,1,47.89,74.9Zm-4-2.58a.09.09,0,0,0,0,.06,2.25,2.25,0,0,0,.67.2,9.05,9.05,0,0,1,1.81.56,5.17,5.17,0,0,1,1.48,1h0a2.14,2.14,0,0,1,.36-.19,6.8,6.8,0,0,1-2.11-2.39,3.36,3.36,0,0,0-1.52.29C44.1,72.07,44,72.27,43.94,72.32ZM43,70.18l.51.8c.11.2.22.37.32.52a4.55,4.55,0,0,1,1.5-.56h0a3.57,3.57,0,0,1,1.06-1.85,6.22,6.22,0,0,0-1,.13A9.23,9.23,0,0,0,43,70.18Zm15.12-5.72H52.6v-3.8l5.69,3.16Zm-4.85-.68h3.54l-3.54-2Z"/><path class="cls-2" d="M56,70.11a.57.57,0,1,1,1.13,0,.57.57,0,0,1-1.13,0"/><path class="cls-2" d="M56.61,70.73a.62.62,0,0,1-.62-.62.62.62,0,1,1,.62.62Zm0-1.13a.51.51,0,0,0-.51.51.51.51,0,0,0,1,0A.51.51,0,0,0,56.61,69.6Z"/><path class="cls-2" d="M49.53,69.85c.76.65,1.13,1.08,1.21,1.46.15.69-1.74-.19-1.83-.68,0-.29.46-.92.62-.78"/><path class="cls-2" d="M50.51,71.62a1.44,1.44,0,0,1-.45-.09c-.45-.16-1.14-.56-1.2-.89a1.08,1.08,0,0,1,.48-.82c.12-.07.19,0,.23,0h0c.81.69,1.15,1.11,1.23,1.49a.25.25,0,0,1-.06.25A.35.35,0,0,1,50.51,71.62Zm-1-1.73a.15.15,0,0,0-.08,0,1,1,0,0,0-.43.7c0,.23.59.62,1.13.8.28.1.49.12.56,0s.05,0,0-.15c-.07-.35-.42-.76-1.19-1.42h0Z"/><path class="cls-2" d="M54.18,71.68a.69.69,0,1,1,.69.69.69.69,0,0,1-.69-.69"/><path class="cls-2" d="M54.87,72.43a.75.75,0,1,1,.75-.75A.76.76,0,0,1,54.87,72.43Zm0-1.39a.64.64,0,1,0,0,1.28.64.64,0,0,0,0-1.28Z"/><path class="cls-4" d="M31.5,21.72c.29-1.19,10.09,3.5,11.33,5.56,1,1.66.15,1.62.19,2.9a1.55,1.55,0,0,0,1.37,1.66,1.7,1.7,0,0,0,1.71-1c.29-.91-.27-2.6-1.36-2.07-.61.3.3-1.51,1.24-.93.77.48.5-.44,1.46-.5,1.3-.07,1,1.57.88,2.18-.14,1.25.45,2.68,1.73,2.15,1.64-.68.08-2.15.79-3.87S58,22.21,62.63,21.6c1.3-.17.48.85-.14,1.36-.32.26.27,1.49-1.33,3.08-.31.31.78,1.28-2.43,3.77-.4.31.68,2.17-2.83,3.16-.78.22.47,1.07-.59,2.27-.68.76.8,1.85-.85,2.4-.51.17.59,1.61-1.22,1.87-.43.06-.43,2.38-2.57.7-.65-.51.39,1.53-.14,1.39a1.3,1.3,0,0,1-.71-.37,2.55,2.55,0,0,0,.65,2.09c.48.4.37,2.33-1.13,1.33-.17-.11.14,1.59-1.27.71-.22-.13-.74,1.35-1.67-.06-.12-.17-1.12,1-1.3-.5,0-.23-.54.76-1.22,0s.31-1.59.47-1.81c.46-.62-.14-1.16.07-1.64.48-1.13-.37.74-.82.2s.68-1.76.14-1.5c-2,1-1.75-.42-2.07-.45C39.94,39.46,41,38,40.46,38c-2.18-.12-.82-2.24-1.25-2.41-1.61-.64-.17-2-.56-2.14-3.54-1.44-1.91-2.52-2.68-3-3.34-1.92-1.6-2.95-2.07-3.47-1-1.14-2.19-2.06-1.63-3.66-.32-.72-1.06-.46-.77-1.65"/><path class="cls-2" d="M47.19,46.37h-.08a1.24,1.24,0,0,1-.87-.52,1.1,1.1,0,0,1-1,.09.89.89,0,0,1-.43-.48,1,1,0,0,1-1.25-.32c-.59-.64-.47-1.41.35-2.3l.09-.09c.12-.17.1-.29,0-.61v0a.58.58,0,0,1-.19,0,.77.77,0,0,1-.56-.26,1.07,1.07,0,0,1-.09-1.07,1.61,1.61,0,0,1-1,0,1.24,1.24,0,0,1-.7-.75,1.36,1.36,0,0,1-1.28-1.62A1.72,1.72,0,0,1,39,37.87a2.13,2.13,0,0,1-.22-1.73l0-.21a1.51,1.51,0,0,1-.65-2.15v0c-2.22-1-2.42-1.84-2.43-2.65,0-.08,0-.19,0-.22-2.49-1.42-2.47-2.5-2.26-3.39a1.64,1.64,0,0,0,0-.23c-.11-.09-.24-.24-.38-.38-.89-.95-1.81-1.94-1.38-3.46a1,1,0,0,0-.24-.22c-.39-.29-.71-.63-.48-1.6a.71.71,0,0,1,.63-.52C33.48,20.81,42,25,43.22,27a2.3,2.3,0,0,1,.4,2.29,2.14,2.14,0,0,0-.15.84c0,.69.41,1.19.94,1.22a1.23,1.23,0,0,0,1.26-.68,1.69,1.69,0,0,0-.33-1.5.33.33,0,0,0-.4,0,.56.56,0,0,1-.74-.13c-.27-.36,0-.9.33-1.25a1.29,1.29,0,0,1,1.69-.34l.07,0,0,0a1.42,1.42,0,0,1,1.1-.58,1.3,1.3,0,0,1,1.06.38,2.68,2.68,0,0,1,.31,2.12l0,.18a2,2,0,0,0,.45,1.66.6.6,0,0,0,.65,0c.58-.24.57-.49.43-1.35a4,4,0,0,1,.12-2.28c.82-2,7.6-5.87,12.15-6.47.61-.08,1,.06,1.15.42.27.61-.48,1.35-.88,1.69a1.52,1.52,0,0,0,0,.23,4.06,4.06,0,0,1-1.27,2.81v.07c.05.9-.22,2-2.47,3.74a1.27,1.27,0,0,0,0,.2c0,.73-.1,2.24-3,3.08a.36.36,0,0,0,0,.11,2.05,2.05,0,0,1-.47,2c-.12.12-.09.28,0,.64A1.36,1.36,0,0,1,54.76,38a.57.57,0,0,1,0,.13,1.45,1.45,0,0,1-1.33,1.79l-.09.19a1.74,1.74,0,0,1-1.09,1.12A1.72,1.72,0,0,1,51.09,41a.92.92,0,0,1-.12.87.58.58,0,0,1-.55.14l-.14,0a1.5,1.5,0,0,0,.48,1,1.67,1.67,0,0,1,.15,2,1.07,1.07,0,0,1-1.27.33,1,1,0,0,1-.51.67,1.16,1.16,0,0,1-1-.09A1.28,1.28,0,0,1,47.19,46.37Zm-.81-1.53a.44.44,0,0,1,.39.21c.21.32.36.41.41.41s.23-.17.3-.24.45-.48.82-.24.45.18.45.18a1.63,1.63,0,0,0,.07-.37.59.59,0,0,1,.31-.55l.23-.11.23.15c.21.14.49.27.58.17a.83.83,0,0,0,0-.78,3,3,0,0,1-.81-2.5l.15-1.1.59.8c-.12-.48-.22-.88.12-1.11a.57.57,0,0,1,.72.1c.67.53,1,.52,1.1.5s.35-.36.48-.62.29-.63.65-.68c.75-.11.73-.35.69-.84,0-.3-.07-.84.45-1s.56-.32.44-.83A1.46,1.46,0,0,1,55,34.94a1.15,1.15,0,0,0,.27-1.23c-.07-.29-.22-1,.54-1.17,2.31-.66,2.36-1.63,2.38-2.27a1,1,0,0,1,.29-.82c2.26-1.75,2.22-2.62,2.2-3a.86.86,0,0,1,.19-.69,3.11,3.11,0,0,0,1.07-2.29,1,1,0,0,1,.3-.82,3.42,3.42,0,0,0,.54-.57h-.06c-4.64.61-10.85,4.49-11.43,5.92a3.14,3.14,0,0,0-.07,1.79c.13.8.3,1.81-1,2.33A1.5,1.5,0,0,1,48.68,32a2.81,2.81,0,0,1-.81-2.48l0-.2c.05-.37.15-1.13-.08-1.38,0,0-.09-.1-.35-.09a.53.53,0,0,0-.46.25.84.84,0,0,1-1.26.18.28.28,0,0,0-.29,0l-.07,0a1.13,1.13,0,0,1,.54.28,2.54,2.54,0,0,1,.6,2.45,2.13,2.13,0,0,1-2.16,1.31,2,2,0,0,1-1.8-2.09A3.08,3.08,0,0,1,42.76,29c.14-.39.22-.62-.32-1.52C41.29,25.59,33.25,21.9,31.91,22c-.07.33,0,.38.18.52a1.71,1.71,0,0,1,.59.7l.07.16,0,.17c-.38,1.07.18,1.74,1.12,2.75l.42.46a1,1,0,0,1,.14,1c-.12.5-.29,1.19,1.81,2.39a1,1,0,0,1,.48,1c0,.45,0,1.07,2.15,1.94.54.22.31.81.21,1.07-.21.56-.28.82.35,1.07.47.19.38.72.32,1.11s-.14.79,0,1a1.09,1.09,0,0,0,.74.26.62.62,0,0,1,.43.19.93.93,0,0,1,.15.72c0,.44,0,.64.66.7a.69.69,0,0,1,.55.51c.07.16.11.24.19.27s.34.08,1.08-.28a.54.54,0,0,1,.65,0c.28.26.14.59,0,.94,0,.05,0,.11-.07.17h0c.21-.28.44-.35.68-.22s.22.53,0,.94a1,1,0,0,0,.05.34,1.45,1.45,0,0,1-.17,1.39,1,1,0,0,1-.15.17c-.56.6-.55.85-.35,1.07s.21.17.45,0a.54.54,0,0,1,.59-.16l.25.1,0,.3a.84.84,0,0,0,.11.4,2.7,2.7,0,0,1,.26-.16A1.14,1.14,0,0,1,46.38,44.84Zm8.22-6.77Z"/><path class="cls-2" d="M47.25,46.18c-1,0-1-1.11-1-2a9.54,9.54,0,0,0,0-1.08A2.72,2.72,0,0,1,45,45.31l-.4-.81c.5-.25.62-1.16.67-1.59a2.34,2.34,0,0,1,.06-.36l.77.23a1.21,1.21,0,0,0-.31-.63l.63-.65a3.71,3.71,0,0,1,.7,2.66,3.12,3.12,0,0,0,.12,1.14c0-.15.08-1,.1-1.47,0-1.21.11-2.57,1.18-2.6l0,.91c-.11,0-.17.26-.22.59l.76-.22a1.5,1.5,0,0,1,.07.36c0,.44.16,1.34.66,1.6l-.4.8a2.61,2.61,0,0,1-1.14-2.09c0,.27,0,.54,0,.69C48.23,45,48.18,46.18,47.25,46.18ZM41.36,39.9l-.1-.9c.14,0,.54-.34,1-1.12a3.61,3.61,0,0,0,.6-2l-.16-.16c-.42,1-1.51,2.52-2.5,2.66l-.12-.9a2.49,2.49,0,0,0,1.12-1A3.75,3.75,0,0,0,42,34.86h0c-.07-.11-.12-.22-.18-.33a5,5,0,0,1-.66.55,3.31,3.31,0,0,1-2.42.71l.25-.87a2.51,2.51,0,0,0,1.65-.58,2.46,2.46,0,0,0,.8-.8,11.37,11.37,0,0,1-.84-.88,3.41,3.41,0,0,1-2.45,1.14l.07-.9a2.55,2.55,0,0,0,1.81-1c-.17-.24-.32-.49-.46-.73a8.4,8.4,0,0,1-4.16-.48l.35-.83a8.68,8.68,0,0,0,3.42.49,7.7,7.7,0,0,1-.36-1.09,4.94,4.94,0,0,1-2.38-.41,4.52,4.52,0,0,1-1.1-.85c-.53-.5-1.07-1.05-1.75-1l0-.9A3.49,3.49,0,0,1,36,27.35a4.31,4.31,0,0,0,.86.69,4.4,4.4,0,0,0,1.84.35,7.63,7.63,0,0,1,0-1A3.8,3.8,0,0,1,36,26.5a5.54,5.54,0,0,1-.89-1c-.74-.9-1.76-2.14-2.7-1.9l-.22-.88c1.51-.38,2.73,1.12,3.62,2.21a5.21,5.21,0,0,0,.72.8,2.54,2.54,0,0,0,2.42.59l.24-.13.44.32,0,.36a6.65,6.65,0,0,0,1.73,5.16,10.4,10.4,0,0,1,1.24-4.58l.81.4c-1.55,3.14-1.5,5.79.09,7.38l.09.09.38.32a5.82,5.82,0,0,0,7-.31c1.77-1.65,1.63-4.29-.39-7.43l.76-.49A9.72,9.72,0,0,1,53,32.1a7.66,7.66,0,0,0,2-5.4.49.49,0,0,1,.21-.51l.21-.14.24.11c.15.08,1.06.16,2.47-.85a6.32,6.32,0,0,0,.68-.72c.83-1,2.1-2.4,3.6-2l-.22.88c-1-.24-2,.91-2.7,1.75a5.63,5.63,0,0,1-.83.85,4.89,4.89,0,0,1-2.72,1.07h0a6.8,6.8,0,0,1-.06.9,2,2,0,0,0,1.42-.35c.32-.34,2.73-2.47,4.06-2.05l-.28.86c-.59-.19-2.43,1.08-3.12,1.81a2.78,2.78,0,0,1-2.24.62A8.42,8.42,0,0,1,55.31,30a5.73,5.73,0,0,0,3.43-.74l.6.68c-1.14,1-3.57,1.07-4.42.92A10.32,10.32,0,0,1,54,32.25a2.65,2.65,0,0,1,2.1,1l-.82.38a2.87,2.87,0,0,0-2-.54l-.38.38,0,.2a3.47,3.47,0,0,1,1.22.43,3,3,0,0,1,1.5,1.45l-.87.25a2.44,2.44,0,0,0-1.06-.91,2.41,2.41,0,0,0-1.1-.33l-.2.37a6.07,6.07,0,0,1,2.39,2.68l-.88.21a5.76,5.76,0,0,0-2-2.16c-.11.12-.21.23-.31.32l-.35.3h0c0,.41,1.21,2.48,2.46,2.68l-.15.9a4.46,4.46,0,0,1-2.52-2,4.92,4.92,0,0,1-.59-1.11,6.83,6.83,0,0,1-6.67-.21c0,.1-.05.21-.08.31C43.3,38.06,42.35,39.79,41.36,39.9Zm9.76-3.56h0Zm-3.25,3H46.45v-.91h1.42Zm-.6-3.73a4.13,4.13,0,0,1-2.05-.54,3.59,3.59,0,0,1-1.79-3.45l.9.05a2.71,2.71,0,0,0,1.34,2.62,3.27,3.27,0,0,0,3.3-.08,2.92,2.92,0,0,0,1.14-3l.89-.11A3.76,3.76,0,0,1,49.48,35,4,4,0,0,1,47.27,35.61Zm-.07-1.92a2.77,2.77,0,0,1-2.54-1.83l.82-.38a1.78,1.78,0,0,0,2.26,1.22c.72-.22,1.09-.73,1.07-.9l.89-.14c.12.73-.64,1.58-1.7,1.91A3,3,0,0,1,47.2,33.69Z"/><path class="cls-2" d="M49.31,42.9a1.45,1.45,0,0,1-.83-.32,2.07,2.07,0,0,1-.83-1.15l0-.24a6.81,6.81,0,0,1-.1-1.44c0-1.79,0-3.2,1.56-3.28h0a1.68,1.68,0,0,1,1.64,1.69v3a1.69,1.69,0,0,1-1.28,1.69Zm-.2-5.53c-.59,0-.69.38-.69,2.38A6.7,6.7,0,0,0,48.5,41c0,.09,0,.17,0,.27a1.44,1.44,0,0,0,.76.68h0a.81.81,0,0,0,.52-.8v-3A.81.81,0,0,0,49.11,37.37Z"/><path class="cls-2" d="M45,43a1.1,1.1,0,0,1-.61-.18,2,2,0,0,1-.67-1.51.48.48,0,0,0,0-.2,3.73,3.73,0,0,1-.17-1.32c0-1.79,0-3.2,1.56-3.28h0a1.69,1.69,0,0,1,1.64,1.7c0,.33,0,.69,0,1.06a17,17,0,0,1,0,2.27,1.58,1.58,0,0,1-1.2,1.36A1.53,1.53,0,0,1,45,43Zm.09-5.59c-.59,0-.69.38-.69,2.38a2.8,2.8,0,0,0,.13,1,1.43,1.43,0,0,1,.1.43,1.21,1.21,0,0,0,.26.81.4.4,0,0,0,.32,0c.41-.15.57-.27.61-.62a15,15,0,0,0,0-2.13c0-.38,0-.75,0-1.09A.82.82,0,0,0,45.05,37.41Z"/><polygon class="cls-2" points="45.52 29.24 43.81 29.24 44.41 27.95 44.82 28.15 44.52 28.79 45.52 28.79 45.52 29.24"/><path class="cls-7" d="M11.07,37.78l.7-1.92a2.72,2.72,0,0,0,0-2.31,3,3,0,0,0-1.7-1.3,2.81,2.81,0,0,0-2.13,0,2.51,2.51,0,0,0-1.27,1.61L6,35.91l.26.1c.19-.53.26-.56.76-.37l3.49,1.27c.51.18.54.25.35.77Zm-4-3c-.27-.1-.32-.16-.24-.37L7,34a1.59,1.59,0,0,1,1-1.09,2.9,2.9,0,0,1,1.9.19,2.76,2.76,0,0,1,1.46,1,1.82,1.82,0,0,1,.09,1.65l-.12.34c-.09.23-.16.24-.5.12Z"/><path class="cls-3" d="M14.85,29l-1-.79-.17.31c.64.55.66.65.46,1l-.48.92c-.07.13-.14.17-.4,0l-1.75-.93.36-.68c.16-.3.23-.32.86,0l.15-.3-1.63-.87-.16.3c.59.31.63.41.48.7l-.36.67-1.56-.82c-.26-.14-.29-.18-.18-.4l.37-.7c.2-.37.27-.42,1.08-.2l.17-.31L10,26.55,8.43,29.41l.24.13c.25-.46.33-.48.8-.23l3.28,1.74c.47.25.5.33.25.79l.24.13Z"/><path class="cls-7" d="M15.15,26.81c.44.31.47.38.17.81l.22.16,1.15-1.64L16.46,26c-.34.49-.4.49-.85.18l-1.26-.88.21-.31a2.25,2.25,0,0,0,.55-1.43,1.4,1.4,0,0,0-.69-1.08,1.41,1.41,0,0,0-1.23-.26,2.22,2.22,0,0,0-1,.93l-1.06,1.52.22.16c.3-.43.38-.43.82-.12Zm-2.78-3.42a1.15,1.15,0,0,1,.68-.52,1.21,1.21,0,0,1,.91.26,1.22,1.22,0,0,1,.59.78,1.19,1.19,0,0,1-.26.86l-.22.31L12.48,24c-.29-.21-.33-.26-.24-.38Z"/><path class="cls-7" d="M18.68,21l.89.41c.36.16.44.25.15.57l.2.18L21,20.93l-.21-.19c-.17.19-.28.21-.71,0l-4.64-2-.31.34,2.62,4.37c.19.31.18.42,0,.62l.2.18.82-.91-.21-.18c-.27.3-.35.27-.61-.15l-.49-.76Zm-.33-.15-1,1.16L16,19.8l0,0Z"/><path class="cls-7" d="M22.19,16.47a1.54,1.54,0,0,0,.38-.94,1.41,1.41,0,0,0-.34-.94,1.22,1.22,0,0,0-1.08-.5,2.28,2.28,0,0,0-1.35.67L18.32,16l.17.21c.41-.35.49-.33.83.08l2.39,2.84c.34.41.34.49-.07.83l.18.21,1.49-1.24-.18-.22c-.4.34-.46.33-.81-.09l-1-1.25.4-.34,2.63,1.06.86-.72L25,17.17c-.23.19-.36.23-.86,0Zm-2.3-.74c-.25-.3-.28-.36-.15-.47L20,15a1.15,1.15,0,0,1,.81-.34,1.07,1.07,0,0,1,.76.42,1.14,1.14,0,0,1,.34.91,1.36,1.36,0,0,1-.55.83l-.32.27Z"/><path class="cls-3" d="M25.31,11.24l.67-.42c.37-.23.44-.24,1.05.43l.28-.17-.83-1-3.4,2.12.53,1.18.28-.17c-.34-.83-.3-.9.07-1.13l.67-.42,2.24,3.59c.29.45.29.52-.26.86l.14.23,1.84-1.15L28.45,15c-.55.35-.62.32-.9-.14Z"/><path class="cls-3" d="M32.49,7.36l.26,4.54h0l-3-3.43L28.44,9l.11.26c.47-.19.53-.16.72.32L30.67,13c.2.5.19.57-.28.76l.1.26,1.34-.54-.11-.26c-.43.18-.49.14-.69-.36L29.64,9.47h0l3.21,3.67.27-.11-.27-4.84h0l1.37,3.4c.2.5.2.57-.27.75l.11.26,1.75-.71-.11-.25c-.47.19-.54.15-.74-.35L33.62,7.85c-.21-.5-.2-.57.28-.77l-.1-.25Z"/><path class="cls-3" d="M40.36,10.76,40.29,9.5,40,9.59c0,.84,0,.93-.45,1l-1,.25c-.14,0-.21,0-.28-.27l-.48-1.93.74-.19c.32-.08.39,0,.56.65l.33-.08-.44-1.8-.33.08c.16.65.12.74-.2.82l-.75.19-.42-1.71c-.07-.29-.06-.34.17-.4L38.16,6c.41-.1.49-.09.87.66l.34-.08-.51-1.11-3.15.78.07.27c.51-.12.58-.08.71.44l.89,3.6c.13.52.1.59-.41.72l.07.27Z"/><path class="cls-7" d="M42.65,5l-1.38.12,0,.28c.54,0,.59,0,.64.53l.32,3.71c.05.53,0,.59-.53.64l0,.27,1.54-.13,0-.28c-.52.05-.58,0-.63-.53l-.33-3.84h0l3.36,4.51.53,0L45.8,5.55c0-.54,0-.6.51-.64l0-.28-1.54.14,0,.27c.54,0,.61,0,.66.54l.31,3.58h0Z"/><path class="cls-3" d="M50.83,5.19l.78.06c.44,0,.5.06.6,1l.33,0L52.45,5l-4-.28-.27,1.26.33,0c.21-.87.28-.91.72-.88l.79.06-.29,4.22c0,.53-.08.59-.73.54l0,.27,2.16.15,0-.27c-.64,0-.68-.1-.64-.64Z"/><path class="cls-7" d="M58.5,11.92a2.37,2.37,0,0,0,2-.13A3.08,3.08,0,0,0,61.75,10a3,3,0,0,0-.09-2.33,2.81,2.81,0,0,0-3.38-1A3,3,0,0,0,56.9,8.47a3.09,3.09,0,0,0,0,2.22,2.38,2.38,0,0,0,1.58,1.23Zm1.55-5.11a1.5,1.5,0,0,1,1,.85,3.06,3.06,0,0,1-.1,2.05,3.43,3.43,0,0,1-1,1.74,1.6,1.6,0,0,1-2.3-.7,3.43,3.43,0,0,1,.1-2A3.1,3.1,0,0,1,58.76,7a1.47,1.47,0,0,1,1.29-.15Z"/><path class="cls-3" d="M66.32,11l-.3-.15c-.28.6-.39.65-.69.51L64.68,11l.76-1.63c.14-.29.18-.33.4-.22l.75.35c.37.17.41.25.24,1.07l.32.14.29-1.19-3-1.38-.11.25c.47.22.5.3.27.79l-1.57,3.36c-.22.49-.29.52-.77.29l-.12.26,1.86.86.11-.25c-.57-.27-.59-.33-.36-.82l.74-1.57.66.31c.3.14.33.22,0,.86l.3.14Z"/><path class="cls-3" d="M72.12,17.57l-.29-.21c-.66.59-.77.61-1.12.35l-.66-.48c-.14-.1-.17-.17,0-.41l2.28-3.14c.33-.45.39-.47.84-.15l.16-.22-1.58-1.15-.16.23c.41.29.42.37.1.81l-2.17,3c-.32.43-.4.45-.81.15l-.16.22,2.61,1.9Z"/><path class="cls-7" d="M75.41,20.12,75,21c-.17.35-.27.42-.57.12l-.2.19,1.16,1.16.2-.2c-.19-.18-.2-.29,0-.71L77.77,17l-.33-.32-4.5,2.38c-.32.17-.43.16-.61,0l-.2.2.87.86.19-.19c-.29-.3-.25-.37.18-.61l.78-.45Zm.16-.32-1.09-1.1,2.25-1.24,0,0Z"/><path class="cls-7" d="M80.24,20.15c.32.42.3.5-.13.83l-3,2.22c-.43.33-.51.32-.83-.1l-.22.16,1.25,1.66a1.89,1.89,0,0,0,1.23.88,1.43,1.43,0,0,0,1.12-.34,1.18,1.18,0,0,0,.5-.94,1.93,1.93,0,0,0-.41-1.15h0a1.76,1.76,0,0,0,1,.55,1.15,1.15,0,0,0,.92-.25,1.1,1.1,0,0,0,.46-.9,2.22,2.22,0,0,0-.62-1.34L80.46,20Zm.57,1.29c.15-.11.22-.13.34,0l.22.29a.92.92,0,0,1,.21.72,1.13,1.13,0,0,1-.43.61,1.12,1.12,0,0,1-.86.26,1.14,1.14,0,0,1-.7-.49l-.24-.31Zm-1.73,1.31.3.4a1.27,1.27,0,0,1,.31.88,1.1,1.1,0,0,1-.48.76,1.45,1.45,0,0,1-.89.36.94.94,0,0,1-.69-.42l-.26-.35c-.13-.18-.11-.26.13-.44Z"/><path class="cls-7" d="M80.43,29.79A2.36,2.36,0,0,0,82,31.09a3,3,0,0,0,2.17-.46,3,3,0,0,0,1.57-1.74A2.82,2.82,0,0,0,84,25.8a2.93,2.93,0,0,0-2.3.41,3,3,0,0,0-1.54,1.6,2.43,2.43,0,0,0,.28,2ZM85.1,27.2a1.47,1.47,0,0,1,.12,1.29,3.06,3.06,0,0,1-1.5,1.41,3.32,3.32,0,0,1-2,.52,1.58,1.58,0,0,1-1.06-.79,1.56,1.56,0,0,1-.1-1.31,3.3,3.3,0,0,1,1.48-1.39,3,3,0,0,1,2-.53,1.53,1.53,0,0,1,1,.79Z"/><path class="cls-7" d="M85.62,34.94a1.59,1.59,0,0,0,.74.7,1.38,1.38,0,0,0,1,0,1.25,1.25,0,0,0,.86-.84,2.35,2.35,0,0,0-.15-1.5l-.63-1.83-.26.09c.18.51.14.58-.37.75L83.3,33.54c-.51.17-.58.15-.75-.36l-.26.09.63,1.84.26-.09c-.17-.5-.14-.55.38-.73l1.54-.53.17.5-1.93,2.07.37,1.07.26-.09c-.1-.29-.09-.42.26-.82Zm1.52-1.88c.37-.13.43-.13.49,0l.12.34a1.16,1.16,0,0,1,0,.88,1,1,0,0,1-.66.56,1.15,1.15,0,0,1-1,0,1.34,1.34,0,0,1-.57-.81l-.14-.4Z"/><path class="cls-3" d="M8.16,57.2a1.85,1.85,0,0,1-1.23-.06,1.11,1.11,0,0,1-.56-.84,1.13,1.13,0,0,1,.17-1,1.85,1.85,0,0,1,1.17-.56l2.64-.51c.54-.11.59-.08.68.41l.27-.05-.36-1.86-.27.05c.1.5.05.55-.48.65L7.52,54a1.94,1.94,0,0,0-1.46.81A2.12,2.12,0,0,0,6,56.24a1.73,1.73,0,0,0,.7,1.19,2,2,0,0,0,1.5.17l2.74-.53c.53-.1.59-.07.68.4l.28-.06L11.57,56l-.27,0c.09.47.06.53-.48.64Z"/><path class="cls-3" d="M12.56,59.53l-.5-1.28-.25.1c.19.5.17.56-.34.76L8,60.44c-.5.19-.57.16-.76-.33l-.26.1.56,1.44.26-.1c-.19-.49-.16-.56.34-.75l3.6-1.38h0L8.32,63.9l.19.5,4.35-1.67c.5-.19.57-.15.75.32l.26-.1-.56-1.45-.25.1c.19.51.16.59-.34.78L9.37,63.66h0Z"/><path class="cls-3" d="M10.48,66.36c-.47.26-.54.24-.81-.25l-.24.13L10.37,68l.24-.13c-.26-.49-.23-.56.25-.81l3.27-1.74c.48-.25.55-.24.81.25l.24-.13-.93-1.77-.25.13c.26.49.23.56-.24.81Z"/><path class="cls-3" d="M16.52,68.4l.43.66c.24.36.25.43-.41,1.06l.17.27,1-.85-2.18-3.35-1.17.55.18.27c.83-.35.89-.32,1.13,0l.44.67L12.54,70c-.45.29-.52.29-.87-.25l-.23.15,1.18,1.81.23-.14c-.35-.55-.33-.61.12-.9Z"/><path class="cls-3" d="M16.26,76.36l1.1-.61-.22-.27c-.75.39-.86.37-1.13,0l-.67-.8c-.09-.11-.1-.19.13-.38L17,73.08l.49.59c.22.25.21.33-.33.79l.21.25,1.42-1.18-.22-.26c-.5.42-.61.43-.82.17l-.49-.58,1.35-1.13c.23-.2.28-.21.44,0l.5.61c.27.32.29.4-.21,1.07l.22.27.77-1-2.08-2.48-.21.18c.33.4.33.48-.08.82L15.1,73.62c-.41.34-.49.34-.83-.06l-.21.17Z"/><path class="cls-7" d="M17.48,77.67,19,79a2.76,2.76,0,0,0,2.13.91A3.07,3.07,0,0,0,23,78.85a2.78,2.78,0,0,0,.83-2,2.45,2.45,0,0,0-1-1.78l-1.66-1.49-.18.2c.42.38.41.45.06.85l-2.49,2.77c-.36.39-.43.4-.85,0Zm4.24-2.6c.2-.22.27-.24.43-.09l.39.35a1.59,1.59,0,0,1,.63,1.34,3,3,0,0,1-.88,1.69,2.75,2.75,0,0,1-1.5,1,1.79,1.79,0,0,1-1.56-.53L19,78.56c-.18-.17-.17-.24.08-.51Z"/><path class="cls-3" d="M29.28,81.23c.15-.38.32-.78.44-1a2.88,2.88,0,0,0-.81-.7,1.63,1.63,0,0,0-1.16-.27,1.21,1.21,0,0,0-.84.59,1.39,1.39,0,0,0-.22.77,4.31,4.31,0,0,0,.38,1.29,3.82,3.82,0,0,1,.32,1,1.08,1.08,0,0,1-.17.65,1,1,0,0,1-.59.47.89.89,0,0,1-.67-.1c-.48-.29-.62-.66-.34-1.53l-.34-.1a8.19,8.19,0,0,1-.44,1.12,3.64,3.64,0,0,0,.91.78,1.77,1.77,0,0,0,1.37.26,1.42,1.42,0,0,0,.85-.67,1.63,1.63,0,0,0,.24-.94,5.44,5.44,0,0,0-.43-1.3,3.5,3.5,0,0,1-.29-1,.89.89,0,0,1,.14-.54.71.71,0,0,1,.43-.35.8.8,0,0,1,.65.1c.5.3.53.58.24,1.33Z"/><path class="cls-3" d="M32.9,82l.72.32c.4.17.45.23.23,1.11l.3.13.36-1.24-3.66-1.63-.68,1.1.3.13c.5-.74.57-.75,1-.57l.72.32-1.72,3.87c-.22.48-.27.52-.87.26l-.11.25,2,.88.11-.25c-.59-.26-.6-.33-.38-.82Z"/><path class="cls-7" d="M36.4,86.86v1c0,.39,0,.5-.45.37l-.08.27,1.56.48.09-.27c-.25-.07-.31-.17-.33-.64L37,83l-.43-.13L33.73,87.1c-.2.3-.31.34-.56.26l-.08.27,1.17.36.08-.27c-.39-.12-.39-.2-.13-.62l.49-.76Zm0-.37L34.9,86l1.42-2.15h0Z"/><path class="cls-3" d="M41.63,84.54l.78.14c.43.07.49.11.49,1l.32.06.05-1.29-3.94-.7L38.93,85l.32.06c.31-.84.38-.87.81-.8l.78.14-.73,4.17c-.09.53-.14.58-.78.46l0,.27,2.13.38,0-.27c-.64-.11-.67-.18-.57-.7Z"/><path class="cls-3" d="M47.39,90.08l.28-1.22h-.34c-.22.81-.31.88-.73.86l-1,0c-.15,0-.21-.05-.2-.35l.07-2,.77,0c.33,0,.38.06.36.77h.34L47,86.31h-.34c0,.67-.09.75-.42.73l-.76,0,.06-1.76c0-.3,0-.35.28-.34l.79,0c.42,0,.49,0,.66.88h.34l-.18-1.21-3.24-.11v.28c.52,0,.57.08.56.61l-.13,3.71c0,.54-.08.59-.6.58V90Z"/><path class="cls-3" d="M51.47,85.62c-.1-.4-.18-.83-.23-1.11a2.91,2.91,0,0,0-1.07-.11,1.7,1.7,0,0,0-1.11.45,1.27,1.27,0,0,0-.35,1,1.53,1.53,0,0,0,.26.75,4.64,4.64,0,0,0,1.06.84,3.72,3.72,0,0,1,.86.67,1.15,1.15,0,0,1,.23.63,1,1,0,0,1-.21.72.84.84,0,0,1-.61.3c-.56,0-.89-.18-1.16-1l-.33.11A8.45,8.45,0,0,1,49.09,90a3.63,3.63,0,0,0,1.2.12,1.77,1.77,0,0,0,1.27-.58,1.47,1.47,0,0,0,.31-1,1.66,1.66,0,0,0-.35-.9,5,5,0,0,0-1.1-.82,3.56,3.56,0,0,1-.8-.64.92.92,0,0,1-.2-.53.79.79,0,0,1,.16-.54.83.83,0,0,1,.59-.28c.58,0,.76.17,1,1Z"/><path class="cls-7" d="M58.79,88.66a2.4,2.4,0,0,0,1.63-1.17,3.13,3.13,0,0,0,.08-2.22,3,3,0,0,0-1.31-1.94,2.85,2.85,0,0,0-3.42.91,3,3,0,0,0-.16,2.34,3,3,0,0,0,1.18,1.88,2.4,2.4,0,0,0,2,.2ZM57.4,83.5a1.48,1.48,0,0,1,1.28.19,3.1,3.1,0,0,1,1,1.8,3.33,3.33,0,0,1,0,2,1.58,1.58,0,0,1-2.31.62,3.23,3.23,0,0,1-1-1.77,3,3,0,0,1,0-2.06,1.5,1.5,0,0,1,1-.81Z"/><path class="cls-3" d="M64,82.73l-.31.13c.26.61.22.72-.08.85l-.67.28-.7-1.66c-.13-.29-.12-.35.1-.44l.76-.33c.38-.15.47-.13,1,.54l.32-.14-.69-1-3,1.26.1.26c.48-.2.56-.17.77.32L63,86.21c.21.49.18.56-.3.77l.11.26,1.88-.81-.11-.25c-.58.25-.64.22-.85-.28l-.67-1.59.67-.29c.3-.13.39-.1.67.55l.3-.13Z"/><path class="cls-7" d="M70.3,81.36l.76.63c.3.24.35.35,0,.58l.15.24,1.37-.9-.15-.23c-.21.14-.33.13-.69-.16l-4-3.11-.39.25,1.4,4.9c.1.34.06.46-.15.6l.15.23,1-.67-.15-.23c-.35.23-.41.17-.56-.3l-.27-.86ZM70,81.13,68.71,82,68,79.51h0Z"/><path class="cls-3" d="M73.38,74l1.88,4.15h0L71.2,76l-1,.94.18.2c.38-.35.44-.34.79,0l2.55,2.73c.37.39.38.46,0,.81l.19.2,1-1-.19-.2c-.34.32-.41.3-.78-.09L71.49,77h0l4.31,2.27L76,79,74,74.6h0l2.51,2.69c.36.39.38.46,0,.8l.19.2L78.14,77l-.19-.2c-.37.35-.44.34-.81-.05L74.61,74c-.37-.4-.38-.47,0-.82l-.19-.2Z"/><path class="cls-3" d="M81.35,73.14l-.81-1-.22.27c.52.66.52.77.26,1.1l-.65.8c-.1.12-.17.14-.4,0L78,73.05l.49-.59c.2-.26.28-.27.83.17l.22-.26-1.44-1.16-.21.26c.51.42.53.52.33.77l-.48.6-1.37-1.11c-.23-.19-.26-.23-.1-.43l.5-.61c.26-.32.33-.36,1.09,0l.22-.27L77,69.85l-2,2.52.22.17c.33-.4.41-.41.83-.07l2.88,2.33c.42.34.43.42.1.83l.21.17Z"/><path class="cls-7" d="M81.54,68.15a1.66,1.66,0,0,0,.07-1,1.44,1.44,0,0,0-.61-.79,1.29,1.29,0,0,0-1.19-.14,2.31,2.31,0,0,0-1.08,1.06l-1,1.64.23.15c.29-.46.36-.47.82-.18l3.14,2c.46.29.48.36.2.82l.23.14,1-1.64L83.13,70c-.28.44-.34.45-.8.16L81,69.3l.28-.45,2.82.19.6-1-.24-.15c-.16.26-.27.33-.8.31Zm-2.43,0c-.32-.2-.37-.25-.28-.4l.19-.31a1.21,1.21,0,0,1,.67-.57,1.07,1.07,0,0,1,.85.17,1.14,1.14,0,0,1,.61.76,1.38,1.38,0,0,1-.27,1l-.22.36Z"/><path class="cls-3" d="M84.66,66c.49.22.52.29.28.8l.25.11L86,65.13,85.79,65c-.23.51-.31.52-.79.3l-3.37-1.57c-.48-.23-.52-.3-.28-.8l-.25-.12-.85,1.82.25.11c.24-.5.31-.52.8-.29Z"/><path class="cls-3" d="M86.59,59.66a2.06,2.06,0,0,1,.63.83,1.3,1.3,0,0,1,0,1,1.44,1.44,0,0,1-1,.88,3.25,3.25,0,0,1-2-.2A2.86,2.86,0,0,1,82.65,61a1.47,1.47,0,0,1-.07-1.26,1.18,1.18,0,0,1,.48-.67,1.86,1.86,0,0,1,1.13,0l.06-.35c-.44-.06-.85-.15-1.26-.24a3,3,0,0,0-.36.46,3.93,3.93,0,0,0-.37.74,2.46,2.46,0,0,0,0,1.91A2.9,2.9,0,0,0,84,62.94a3.28,3.28,0,0,0,2.3.14,2.21,2.21,0,0,0,1.22-1.37,1.93,1.93,0,0,0,0-1.36,2.47,2.47,0,0,0-.74-1Z"/><path class="cls-7" d="M87.4,55l1-.11c.39,0,.5,0,.42.41l.27,0,.31-1.6-.27-.06c0,.26-.14.33-.6.39l-5,.7-.08.44,4.49,2.4c.32.17.37.28.32.53l.27.05.24-1.2-.27,0c-.08.41-.16.41-.61.19l-.81-.4Zm-.36,0-.29,1.53-2.29-1.18v0Z"/><path class="cls-3" d="M6.66,45a.68.68,0,1,1,.68.67A.67.67,0,0,1,6.66,45"/><path class="cls-8" d="M7.34,45.76a.8.8,0,0,1,0-1.59.8.8,0,0,1,0,1.59Zm0-1.36A.57.57,0,1,0,7.9,45,.56.56,0,0,0,7.34,44.4Z"/><path class="cls-3" d="M86.73,44.67a.68.68,0,1,1,.68.68.68.68,0,0,1-.68-.68"/><path class="cls-8" d="M87.41,45.47a.8.8,0,1,1,.79-.8A.79.79,0,0,1,87.41,45.47Zm0-1.36a.57.57,0,0,0,0,1.13.57.57,0,1,0,0-1.13Z"/><path class="cls-2" d="M38.34,45.33H37.21v-.22c0-.77,0-1.94,1.63-2h2.42c.28,0,.29,0,.4-.21.26-.47.62-.92,1.86-.92h2.66v1.13H43.51c-.68,0-.76.13-.88.35a1.38,1.38,0,0,1-1.38.78H38.86c-.53,0-.53,0-.53.84Zm19,0H56.17v-.24c0-.83,0-.83-.52-.84H53.26a1.37,1.37,0,0,1-1.38-.78c-.13-.22-.2-.35-.88-.35H48.34V42H51c1.23,0,1.6.45,1.86.92.11.2.12.21.4.21h2.42c1.64,0,1.63,1.21,1.63,2Z"/><rect class="cls-4" x="48.55" y="40.03" width="1.14" height="1.99"/><path class="cls-4" d="M49.8,42.14H48.43V39.92H49.8Zm-1.14-.23h.91V40.15h-.91Z"/><rect class="cls-4" x="44.48" y="40.02" width="1.14" height="1.99"/><path class="cls-4" d="M45.73,42.13H44.37V39.91h1.36Zm-1.14-.23h.91V40.13h-.91Z"/><path class="cls-2" d="M45.83,42.87h-.45V40.44h.45Zm4,0h-.45V40.44h.45Zm-1,0h-.45V40.43h.45Zm-4-.14h-.46V40.44h.46Z"/><polygon class="cls-2" points="44.42 42.65 45.86 42.76 46.65 43.21 46.85 44.88 46.06 45.56 45.13 45.42 44.73 45.13 44.16 45.25 43.51 44.4 43.94 43.38 44.42 42.65"/><path class="cls-2" d="M46.09,45.68l-1-.17-.36-.25-.58.11-.74-.95.45-1.08.53-.81,1.56.13.84.48L47,44.93Zm-.92-.37.85.13.71-.61-.18-1.55-.72-.41-1.35-.11-.45.68-.39.94.57.74.54-.11Z"/><path class="cls-2" d="M48,45.33l1,.23.32-.68.9.17.71-.79-.45-1-1-.65-.65-.17-1,.06a2.88,2.88,0,0,0-.23.56c0,.12,0,1.5,0,1.5Z"/><path class="cls-2" d="M49.15,45.69,48,45.43l-.37-.92s0-1.38,0-1.5a2.14,2.14,0,0,1,.24-.61l0-.06,1.1-.06.7.19,1,.67v0l.48,1.11-.8.89L49.46,45Zm-1-.46.9.2.31-.68.93.18.62-.69-.41-1-.95-.62-.62-.17-.93.06a3.89,3.89,0,0,0-.19.45c0,.11,0,1.3,0,1.48Z"/><path class="cls-4" d="M44.24,43.59c.27-.46.66-.73.86-.62s.16.59-.11,1-.65.74-.86.62-.15-.59.11-1"/><path class="cls-4" d="M50.14,43.53c-.26-.47-.63-.75-.84-.63s-.15.6.11,1.06.64.75.84.63.15-.59-.11-1.06"/><path class="cls-4" d="M45.6,44.28c.12-.46.36-.78.54-.72s.21.48.09.94-.37.77-.54.71-.22-.48-.09-.93"/><path class="cls-4" d="M48.86,44.29c-.12-.47-.36-.8-.53-.73s-.21.48-.09.95.36.8.53.73.21-.49.09-1"/><rect class="cls-2" x="47.02" y="52.88" width="1.39" height="3.1" transform="matrix(0.96, -0.27, 0.27, 0.96, -13.13, 15.22)"/><rect class="cls-2" x="47.75" y="53.08" width="6.8" height="0.7" transform="translate(-13.49 17.47) rotate(-17.16)"/></svg>